<?xml version="1.0" encoding="UTF-8"?>
<svg width="50px" height="50px" viewBox="0 0 50 50" version="1.1" xmlns="http://www.w3.org/2000/svg" xmlns:xlink="http://www.w3.org/1999/xlink">
    <!-- Generator: Sketch 52.2 (67145) - http://www.bohemiancoding.com/sketch -->
    <title>Group 11</title>
    <desc>Created with Sketch.</desc>
    <g id="Page-1" stroke="none" stroke-width="1" fill="none" fill-rule="evenodd">
        <g id="Desktop-HD-Copy-46" transform="translate(-85.000000, -351.000000)">
            <g id="Group-11" transform="translate(85.000000, 351.000000)">
                <g id="Group-10" transform="translate(8.000000, 8.000000)" fill="#FFFFFF">
                    <path d="M0,9 C3.35010482,25.6666667 8.90985325,34 16.6792453,34 C24.4486373,34 30.2222222,25.6666667 34,9 C30.1509434,25.6666667 24.3773585,34 16.6792453,34 C8.98113208,34 3.42138365,25.6666667 0,9 Z" id="Path-86" stroke="#FFFFFF" stroke-width="2" transform="translate(17.000000, 21.500000) rotate(-180.000000) translate(-17.000000, -21.500000) "></path>
                    <path d="M0,0 C3.35010482,18 8.90985325,27 16.6792453,27 C24.4486373,27 30.2222222,18 34,0 C30.1509434,18 24.3773585,27 16.6792453,27 C8.98113208,27 3.42138365,18 0,0 Z" id="Path-86" stroke="#FFFFFF" stroke-width="2" transform="translate(17.000000, 13.500000) scale(1, -1) rotate(180.000000) translate(-17.000000, -13.500000) "></path>
                    <path d="M8.31172406,17.6470588 C10.7701542,13.8823529 13.7480072,12 17.245283,12 C20.7425589,12 23.6626982,13.8823529 26.005701,17.6470588 C23.6626982,21.8823529 20.7425589,24 17.245283,24 C13.7480072,24 10.7701542,21.8823529 8.31172406,17.6470588 Z" id="Combined-Shape"></path>
                </g>
            </g>
        </g>
    </g>
</svg>
