<?xml version="1.0" encoding="UTF-8"?>
<svg width="50px" height="50px" viewBox="0 0 50 50" version="1.1" xmlns="http://www.w3.org/2000/svg" xmlns:xlink="http://www.w3.org/1999/xlink">
    <!-- Generator: Sketch 52.2 (67145) - http://www.bohemiancoding.com/sketch -->
    <title>sin.svg</title>
    <desc>Created with Sketch.</desc>
    <g id="Page-1" stroke="none" stroke-width="1" fill="none" fill-rule="evenodd">
        <g id="Desktop-HD-Copy-46" transform="translate(-215.000000, -352.000000)">
            <g id="Group-8" transform="translate(215.000000, 352.000000)">
                <g id="Group-7" transform="translate(8.000000, 9.000000)" stroke="#FFFFFF" stroke-width="2">
                    <path d="M0,16 C0.905660377,5.33333333 2.37735849,4.43645633e-16 4.41509434,0 C6.45283019,0 7.98113208,5.33333333 9,16" id="Combined-Shape"></path>
                    <path d="M9,16 C9.88679245,26.6666667 11.3584906,32 13.4150943,32 C15.4716981,32 17,26.6666667 18,16 C16.9811321,26.6666667 15.4528302,32 13.4150943,32 C11.3773585,32 9.90566038,26.6666667 9,16 Z" id="Path-86"></path>
                    <path d="M18,16 C18.9056604,5.33333333 20.3773585,4.43645633e-16 22.4150943,0 C24.4528302,0 25.9811321,5.33333333 27,16" id="Combined-Shape-Copy-4"></path>
                    <path d="M27,16 C27.8867925,26.6666667 29.3584906,32 31.4150943,32 C33.4716981,32 35,26.6666667 36,16 C34.9811321,26.6666667 33.4528302,32 31.4150943,32 C29.3773585,32 27.9056604,26.6666667 27,16 Z" id="Path-86"></path>
                </g>
            </g>
        </g>
    </g>
</svg>
