<?xml version="1.0" encoding="UTF-8"?>
<svg width="50px" height="50px" viewBox="0 0 50 50" version="1.1" xmlns="http://www.w3.org/2000/svg" xmlns:xlink="http://www.w3.org/1999/xlink">
    <!-- Generator: Sketch 52.2 (67145) - http://www.bohemiancoding.com/sketch -->
    <title>Group 12</title>
    <desc>Created with Sketch.</desc>
    <g id="Page-1" stroke="none" stroke-width="1" fill="none" fill-rule="evenodd">
        <g id="Desktop-HD-Copy-46" transform="translate(-85.000000, -416.000000)">
            <g id="Group-12" transform="translate(85.000000, 416.000000)">
                <path d="M25.9624277,22.1835443 L25.9624277,29.556962 C25.9624277,30.1265851 26.1266843,30.5590703 26.4552023,30.8544304 C26.7837203,31.1497905 27.2129068,31.2974684 27.7427746,31.2974684 C28.590563,31.2974684 29.342964,31.0865 30,30.664557 L30,34.4936709 C29.2157957,34.8312253 28.156076,35 26.8208092,35 C23.1541242,35 21.3208092,33.1751237 21.3208092,29.5253165 L21.3208092,22.1835443 L19,22.1835443 L19,18.7974684 L21.3208092,18.7974684 L21.3208092,15 L25.9624277,15 L25.9624277,18.7974684 L29.7138728,18.7974684 L29.7138728,22.1835443 L25.9624277,22.1835443 Z" id="t" fill="#FFFFFF"></path>
            </g>
        </g>
    </g>
</svg>
