<?xml version="1.0" encoding="UTF-8"?>
<svg width="50px" height="50px" viewBox="0 0 50 50" version="1.1" xmlns="http://www.w3.org/2000/svg" xmlns:xlink="http://www.w3.org/1999/xlink">
    <!-- Generator: Sketch 52.2 (67145) - http://www.bohemiancoding.com/sketch -->
    <title>Group 12</title>
    <desc>Created with Sketch.</desc>
    <g id="Page-1" stroke="none" stroke-width="1" fill="none" fill-rule="evenodd">
        <g id="Desktop-HD-Copy-46" transform="translate(-150.000000, -416.000000)">
            <g id="Group-12" transform="translate(150.000000, 416.000000)">
                <rect id="Rectangle-Copy-9" fill="#000000" x="0" y="0" width="50" height="50"></rect>
                <path d="M18.0434783,25.5108481 L21.7173913,31 L18.2608696,31 L16.4130435,27.7021696 L14.4347826,31 L11,31 L14.9347826,25.4891519 L11.2391304,20 L14.7608696,20 L16.5434783,23.2761341 L18.5217391,20 L22,20 L18.0434783,25.5108481 Z M22,33 L23.9274809,28 L27,28 L24.4045802,33 L22,33 Z M32.1302682,30.6170213 L28,20 L31.3505747,20 L32.5095785,23.3617021 C32.8045992,24.2269547 33.0469339,24.9716281 33.23659,25.5957447 C33.4262462,26.2198613 33.5421454,26.6312047 33.5842912,26.8297872 L33.6475096,27.1276596 C33.8020442,26.5602809 34.1813507,25.3049743 34.7854406,23.3617021 L35.8390805,20 L39,20 L35.1436782,30.4680851 C34.0338386,33.4893768 32.3410075,35 30.0651341,35 C29.6296275,35 29.2362725,34.9645394 28.8850575,34.893617 L28.8850575,32.4255319 C29.1098351,32.4822698 29.3486577,32.5106383 29.6015326,32.5106383 C30.7675665,32.5106383 31.6104699,31.8794389 32.1302682,30.6170213 Z" id="x,y" fill="#FFFFFF"></path>
            </g>
        </g>
    </g>
</svg>