<?xml version="1.0" encoding="UTF-8"?>
<svg width="102px" height="29px" viewBox="0 0 102 29" version="1.1" xmlns="http://www.w3.org/2000/svg" xmlns:xlink="http://www.w3.org/1999/xlink">
    <!-- Generator: Sketch 52.2 (67145) - http://www.bohemiancoding.com/sketch -->
    <title>Group 5</title>
    <desc>Created with Sketch.</desc>
    <g id="Page-1" stroke="none" stroke-width="1" fill="none" fill-rule="evenodd">
        <g id="Desktop-HD-Copy-46" transform="translate(-58.000000, -39.000000)">
            <g id="Group-2" transform="translate(30.000000, 40.000000)">
                <g id="Group-5" transform="translate(29.000000, 0.000000)">
                    <path d="M6.09780242,21.8813314 L9.3050881,21.8813314 C12.3144082,21.8813314 13.8190457,20.8654226 13.8190457,18.8335745 C13.8190457,16.8017265 12.3276068,15.7858177 9.34468422,15.7858177 L6.09780242,15.7858177 L6.09780242,21.8813314 Z M6.09780242,5.1577424 L6.09780242,11.0578871 L8.35478123,11.0578871 C9.93863393,11.0578871 11.1331049,10.7713487 11.9382301,10.1982634 C12.7433552,9.62517803 13.1459117,8.86975867 13.1459117,7.93198263 C13.1459117,6.0824799 11.8788485,5.1577424 9.34468422,5.1577424 L6.09780242,5.1577424 Z M0,0.351664255 L10.3741833,0.351664255 C13.3043108,0.351664255 15.5348699,1.03544902 17.0659275,2.40303907 C18.5969852,3.77062912 19.3625025,5.50939611 19.3625025,7.61939219 C19.3625025,9.0000069 18.9929424,10.2112828 18.2538111,11.2532562 C17.5146799,12.2952295 16.5511839,12.998551 15.3632944,13.3632417 C18.4518072,14.2749684 19.9960404,16.3328349 19.9960404,19.536903 C19.9960404,21.6208498 19.2371224,23.3335678 17.7192635,24.6751085 C16.2014047,26.0166493 14.1358278,26.6874096 11.5224708,26.6874096 L0,26.6874096 L0,0.351664255 Z M32.2510394,16.4500724 L38.6656108,16.4500724 L38.3884379,15.512301 C37.6229091,12.9594663 36.9959768,10.7843795 36.5076223,8.9869754 C36.0192677,7.18957133 35.7222997,6.03039334 35.6167096,5.50940666 L35.4583251,4.72793054 C35.2471447,6.16064392 34.2704502,9.75539813 32.5282122,15.512301 L32.2510394,16.4500724 Z M41.7541081,26.6874096 L40.1306672,21.2952243 L30.785983,21.2952243 L29.1625421,26.6874096 L22.7875668,26.6874096 L31.6966937,0.351664255 L39.3783409,0.351664255 L48.2874678,26.6874096 L41.7541081,26.6874096 Z M71.9857454,1.48480463 L71.9857454,7.26772793 C70.0059295,6.06945855 67.8017676,5.47033285 65.3731934,5.47033285 C63.2349923,5.47033285 61.4399861,6.20621551 59.9881212,7.67800289 C58.5362562,9.14979028 57.8103346,11.1229978 57.8103346,13.5976845 C57.8103346,16.0202726 58.5362562,17.9413822 59.9881212,19.3610709 C61.4399861,20.7807596 63.3141837,21.4905933 65.6107701,21.4905933 C68.0921394,21.4905933 70.2171099,20.8654187 71.9857454,19.6150507 L71.9857454,25.5151954 C70.3754951,26.5050701 68.052546,27 65.0168284,27 C61.1099917,27 57.8433445,25.7561629 55.2167888,23.2684515 C52.590233,20.7807401 51.2769749,17.5571833 51.2769749,13.5976845 C51.2769749,9.58608703 52.5506373,6.31694462 55.0980004,3.79015919 C57.6453635,1.26337376 60.964805,1.11054436e-14 65.0564245,0 C68.0657446,1.11054436e-14 70.3754951,0.494929928 71.9857454,1.48480463 Z M77.0342506,26.6874096 L77.0342506,0.351664255 L83.1320531,0.351664255 L83.1320531,26.6874096 L77.0342506,26.6874096 Z M90.5365274,13.5195369 L100,26.6874096 L92.3579489,26.6874096 L83.4092259,13.5976845 L92.04118,0.351664255 L99.2872698,0.351664255 L90.5365274,13.5195369 Z" id="Back" stroke="#FFFFFF" fill-opacity="0" fill="#000000"></path>
                    <polygon id="Path" fill="#FFFFFF" points="77 27 77 0 83 0 83 27"></polygon>
                </g>
            </g>
        </g>
    </g>
</svg>